<mxfile host="app.diagrams.net" modified="2022-09-04T10:26:55.941Z" agent="5.0 (X11)" etag="B6m2iH8MbNLlEpsTl0ip" version="20.2.8" type="github">
  <diagram id="oZOYW1duo3crIYeeSJwp" name="Page-1">
    <mxGraphModel dx="813" dy="453" grid="1" gridSize="10" guides="1" tooltips="1" connect="1" arrows="1" fold="1" page="1" pageScale="1" pageWidth="600" pageHeight="600" math="0" shadow="0">
      <root>
        <mxCell id="0" />
        <mxCell id="1" parent="0" />
      </root>
    </mxGraphModel>
  </diagram>
</mxfile>
